/* XPM */
static char *_d70b48bb6ce46a9d93f07cee077ce038Ou5LQi0g3R24aZM[] = {
/* columns rows colors chars-per-pixel */
"32 32 102 2 ",
"   c gray39",
".  c #6C6C6C",
"X  c #72726F",
"o  c #737373",
"O  c gray49",
"+  c #DE1F1F",
"@  c #EF0F0F",
"#  c #F70606",
"$  c #FD0101",
"%  c #F40B0B",
"&  c #F80808",
"*  c #EC1414",
"=  c #E41A1A",
"-  c #EB1B1B",
";  c #F11212",
":  c #DD2222",
">  c #D42B2B",
",  c #DD2E2E",
"<  c #CE3232",
"1  c #C33D3D",
"2  c #C83939",
"3  c #D63737",
"4  c #DA3333",
"5  c #D43B3B",
"6  c #E42323",
"7  c #E82020",
"8  c #E12A2A",
"9  c #867600",
"0  c #837A00",
"q  c #BE4343",
"w  c #B94A46",
"e  c #B54C4C",
"r  c #BA4949",
"t  c #AE5454",
"y  c #A65B5B",
"u  c #AA5C5C",
"i  c #B25050",
"p  c #BC5E5E",
"a  c #8E6E6E",
"s  c #9E6666",
"d  c #9B6B6B",
"f  c #827E7E",
"g  c #917B7B",
"h  c #A36565",
"j  c #B76565",
"k  c #B96464",
"l  c #B26B6B",
"z  c #AE7272",
"x  c #A97979",
"c  c #C04242",
"v  c #CC4747",
"b  c #CA4949",
"n  c #C35555",
"m  c #6A9201",
"M  c #679914",
"N  c #54A907",
"B  c #34CB04",
"V  c #34CA0C",
"C  c #2ED004",
"Z  c #22DD05",
"A  c #2CD20D",
"S  c #17E709",
"D  c #09F504",
"F  c #02FD01",
"G  c #12EE12",
"H  c #1BE61B",
"J  c #19E819",
"K  c #2FD32F",
"L  c #3EC53E",
"P  c #39CB39",
"I  c #22E122",
"U  c #28E128",
"Y  c #4CB74C",
"T  c #758E75",
"R  c #45C145",
"E  c #4EC64E",
"W  c #56C056",
"Q  c yellow",
"!  c #818180",
"~  c #818181",
"^  c #838383",
"/  c #838683",
"(  c #848384",
")  c #848484",
"_  c gray52",
"`  c #878785",
"'  c #868686",
"]  c gray53",
"[  c #888181",
"{  c #878887",
"}  c #888887",
"|  c #898989",
" . c #8B8B88",
".. c #8B8B89",
"X. c #8B8B8B",
"o. c gray55",
"O. c #8D8D8C",
"+. c #9E8585",
"@. c #929292",
"#. c #969696",
"$. c #989090",
"%. c #A18585",
/* pixels */
"  O . . . . . . . . . . . . . . . . . . . . . . . . . . . . X . ",
"o @.X.X.^ ) ) ) { { ) { { { } X.{ } X.X.) X.{ o.X.o.} X./ } O.} ",
"o X.) ^ ) ) ) ) / L K G J F I F J G K L X.) ) ) { { { / ! ( } / ",
"o o.#.#.#.#.#.#.U U W F F F F F T F Y U U #.#.#.#.#.#.#.#./ } / ",
"o o.#.) ) X.) ) w M N Z C F S F F D F F I F D H H P R o.#.`  .( ",
"o o.#.) #.#.#.$ $ $ $ & % N B 9 F F F F F F F F F E I I #.( o. .",
"o o.#.#.#.#.#.: $ : @ & # $ 0 m C A D F V F D H J P E ) #. .` ( ",
"o #.#.#.#.#.6 6 v & $ * 7 * * # $ $ , $ $ $ $ j #.#.#.#.#.( o.( ",
"#.#.#.#.#.#.& % = $ $ $ # $ = b ; $ $ # 6 6 [ : u X.#.#.#.} X./ ",
"#.o.#.#.#.p $ $ $ $ # = @ * * $ % # $ $ # c $ g : u #.#.#.) X.( ",
"#.o.#.#.s % $ $ $ p %.$ - - $ & $ $ % # ; % 3 7 $.$ #.#.#.^ X.^ ",
"o o.#.#.1 $ # % 6 $ c > h ; c 4 @ $ # $ 6 # $ $ i u 4 ) #.^ X.f ",
"#.o.#.#.% $ $ 2 = d $ $ $ x $ $ % $ $ $ $ $ $ # $ #.3 z #.#.#.#.",
"#.o.#.#.% $ # h 1 i $ - $ $ s 6 $ $ $ % $ i $ Q $ > v e #.( X.#.",
"#.#.#.#.% * $ $ # $ l $ - 6 7 ; $ $ $ % $ 8 $ 6 ; $ n 3 #.^ ( #.",
"o #.#.#.% $ # % < s # , y s * $ $ $ % $ $ % $ t % $ 3 - #.^ ( #.",
". X.#.#.$ $ $ % : > $ & $ $ $ $ $ * % 5 + * % $ : % * 6 #.) ) #.",
"o X.#.^ 1 $ @ $ # $ $ - 8 8 * $ $ $ $ % & # 6 3 * p Q - #.) o.#.",
". X.#.^ ^ @ % @ $ @ # $ $ # $ $ $ $ # % $ $ t $ Q r % < #.] ) #.",
". X.#.^ ( n # e : # $ $ $ $ @ $ = % $ $ $ $ $ Q c * % r #.O ) #.",
"o X.#.^ ^ l < - v k # % - , z - k b # $ $ $ 6 % Q n @ z #.( ) #.",
"o X.#.^ ^ #.> k q % + # $ % * $ * $ Q Q > $ $ a ^ > - #.#.O ) #.",
". ^ #.^ ^ #.( $ f $ 1 $ * * $ $ # # $ $ Q Q = @ Q $ +.#.#.^ ) #.",
". X.#.^ ^ #.( l 6 $ $ 6 8 $ , ; , l Q $ Q 6 +.Q % % , #.#.) ) #.",
"o X.#.^ ^ #.^ ^ y : f $ $ : h 4 * * * $ $ # = $ # 1 $.^ #.^ ( #.",
". X.#.^ ^ #.O ^ ^ u $ k $ % : ; % $ < 8 2 u $ % ^ ^ #.^ #.^ ) #.",
". X.#.^ ^ #.^ ^ ^ ^ ( 4 3 5 6 3 n 3 - - - - 3 #.#.#.#.#.#.#.#.#.",
"o X.#.^ O #.#.#.#.#.#.#.z n 3 ; * $ % ; , k #.#.#.#.#.^ #.^ ) ^ ",
"o X.#.^ ^ ( ^ ^ ) ^ ^ ^ ^ ) ) #.) ) ) #.^ ) ) ) ^ ^ ^ ) #.^ ) ^ ",
"o X.#.#.#.#.#.#.#.#.#.#.#.#.#.#.) ) ^ #.#.#.#.#.#.#.#.#.#.^ ) ^ ",
"o o.) X.) X./ ( ) ) ) ) ^ ) X.) ) X.X.) ) ) ) ) ) ) ) X.X.) o.) ",
"o X.^ ^ ) ) ) ( ^ ^ ^ ^ ^ ^ O ^ ^ ^ ^ ^ ^ ^ ^ ^ ^ ) ^ ^ ) ^ X.) "
};
