/* XPM */
static char *_809dd0d2f8d41c5ac0aa01e40deaa6aSQ7F5rXOjxGSajoP[] = {
/* columns rows colors chars-per-pixel */
"32 32 17 1 ",
"  c gray39",
". c gray42",
"X c #6C6C6C",
"o c #72726C",
"O c #717171",
"+ c gray45",
"@ c #747474",
"# c #797979",
"$ c yellow",
"% c #808080",
"& c #838383",
"* c #848384",
"= c #848484",
"- c #868686",
"; c #888887",
": c #888888",
"> c gray59",
/* pixels */
" #......X.....XX....X.........oX",
"@>>>>>>>>>>>>>>>>>>>>>>>>>>>>>>*",
"+>=&&&=&=-:=======&==-===:::%&>&",
"+>>>>>>>>>>>>>>>=:=>>>>>>>>>>&>&",
"@>>==:==&=::::&>::=>::=:::::>&>&",
"@>>==>>>>>>>>>>>>>>>>>>>>>>=>&>:",
"@$$$$$$$$$$$$$$$$$$$$$$$$$$$$$$&",
"@$$$$$$$$$$$$$$$$$$$$$$$$$$$$$$&",
"@$$$$$$$$$$$$$$$$$$$$$$$$$$$$$$*",
"+$$**>>*>>>>>>>>>>>>>>>>>>>>>=$*",
"@$$*$$$$$>$>>>>$>$$$$>>$$$$$$=$%",
"+$$&$$$$$>$$>>$$>>$$*=>==$$=>&$%",
"+$$&$>>>>*&$$>$$>>$$>>>>>$$>>$$>",
"+$$#$$$>>**>$$$>*&$$&&>&*$$=>$$>",
"+$$&$$$>>>>>$$>>>>$$>>>>>$$>>$$>",
"+$$&$>>>>*%>$$$>&&$$**>**$$>>$$>",
".$$%$$$$$>>$$>$>>>$$>>>>>$$>>$$>",
"+$$%$$$$$>$$>>$$>$$$$>>>>$$>>$$>",
".$$&&>>*%&*>*%%>&&*>**>&&=>*>$$>",
".$$$$$$$$$$$$$$$$$$$$$$$$$$$$$$>",
"@$$$$$$$$$$$$$$$$$$$$$$$$$$$$$$>",
"@$$$$$$$$$$$$$$$$$$$$$$$$$$$$$$>",
".>>*&>*>%%*>&&&>***>&&#***>>>#>>",
".>>*&>&>>>>>>>>>>>>>>>>>>>>>>*>>",
"+>>==>&&&=&>&&:>%&&>%&&=**>&>&>>",
".>>==>%&=&&>=&=>&&&>&&&&&%>=>&>>",
".>>&*>%%%&&>>>>>>>>>>>>>>>>>>>>>",
"+>>#%>>>>>>>>>>>>>>>>>>>>>>&>*>%",
"+>>&*&&&&&=&&&&>===>%*&&&&==>&>%",
"+>>>>>>>>>>>>>>>:==>>>>>>>>>>&>%",
"+>>>>>>>>>>>>>>>>>>>>>>>>>>>>>>%",
"+:%%&&#&%%&&#&%%&&#&%%%&&#&#&&-*"
};
