/* XPM */
static char *_0b1f4be973f4f4cd69cb50e9be35a04CEP20NPyUBv2DcpM[] = {
/* columns rows colors chars-per-pixel */
"32 32 23 1 ",
"  c gray39",
". c gray42",
"X c #6C6C6B",
"o c #6C6C6C",
"O c #6D6D6D",
"+ c #72726F",
"@ c gray45",
"# c #767676",
"$ c #797979",
"% c gray50",
"& c #808080",
"* c #818180",
"= c #838383",
"- c #848483",
"; c #848484",
": c #8A8A87",
"> c #888888",
", c #8B8B88",
"< c #8B8B89",
"1 c #8B8B8B",
"2 c #8D8D8D",
"3 c #929292",
"4 c gray59",
/* pixels */
" $...OO.......XXO..X..O...XX.X+X",
"#311;;1;1;;11;:1:111111111::;12-",
"@1;=====;1;;;;-;;;==;;==-:;:*-1-",
"@244444444444444;;-4444444444=1-",
"@24;;1;;;;;1;1;41;;41;;1;1;14-1-",
"#24=;444444444444444444444414=11",
"@14=;4;;;11;;;14;;14;1;11;4;4>:=",
"@14=1444444444444444444444444;1;",
"@14;;44;;;1=;1;41;;4;1;;1144411=",
"@14;;44=;;;==1;4;;>4;;>1>;444;1=",
"@24;=444444444444444444444444;;;",
"@14==4;;;==;;=;4==;4;;;;;;4;4>;=",
"@14%=4=====444444444444444444444",
"@24%%4;;===4=%=4===4;=;===4=4;14",
"@14==4=4444444444444444444444=;4",
"@14==4=4===4===4;==4======444==4",
"O>4&;4;4=&=4===4;=;4===;==444=;4",
"@14==4;3444444344444444444444;14",
"O14=;4=====4=%=4;;=4======4=4=;4",
"O14==4==%&=4===4;==4%====;4&4&;4",
"@14==4=4444444444444444444444==4",
"@14%=4=4===4&==4=;=4===%%=444%=4",
"O=4==4=4%==4===4===4==%&==444%;4",
"O14=%4=4444444444444444444444=>4",
"@14==4====&4==>4==%4===;==4=4=;4",
"O14==4%==;;4;;;4;==4====;&4=4=;4",
"O14&=4=&===444444444444444444444",
"@24=&4444444444444444444444=4=;=",
"@14=====;====;;4;;;4=;;;===;4=;=",
"@144444444444444;;;4444444444=;=",
"@2;1>>;;=;1;=;;1;>1;;;;;;;;1>;2;",
"@1===;;;==&&==&========;=;==;=1;"
};
