/* XPM */
static char *_6d87cd4b7c04d17c982da26393e3f56xRheGvOYkGOlIq56[] = {
/* columns rows colors chars-per-pixel */
"32 32 33 1 ",
"  c gray39",
". c gray42",
"X c #6C6C6C",
"o c #72726C",
"O c gray45",
"+ c #747474",
"@ c #797979",
"# c gray50",
"$ c #5858AC",
"% c #5858AD",
"& c #6464B8",
"* c #2B2BD5",
"= c #2C2CD6",
"- c #2121DF",
"; c #3131DC",
": c blue",
"> c #2121E0",
", c #2525E4",
"< c #818180",
"1 c gray51",
"2 c #838383",
"3 c #848483",
"4 c #848484",
"5 c #878785",
"6 c gray53",
"7 c #878887",
"8 c #8A8A87",
"9 c #8B8B88",
"0 c #8B8B8B",
"q c #8D8D8D",
"w c #929292",
"e c gray59",
"r c white",
/* pixels */
" @...XX....XXX................o.",
"+w004404044440808000004000888802",
"O042222240444$=-*$2240443848#20#",
"Oqeeeeeeeeee,;:::*-eeeeeeeeee202",
"Oqe44044440$=:::::=&03248888e383",
"+qe44eeeeee;:::::::;eeeewew8e200",
"+0e22e40404-::r::r:,404088e8w844",
"O0e44eeeeee;:::::::;eeeeeeeee88&",
"O0e44ee4440$=:r::r=&047488eee88<",
"O0e44ee24422-=:rr=>e284084eee88<",
"+qe42eeeeeeee&;,;&eeeeeeeeeee28<",
"O0e22e444224::::::::443333e3e84<",
"O0e#2e22223::::::::::eeeeeeeeeee",
"Oqe##e4422:::::::::::33322e3e33e",
"O0e22e2ee:::::::::::::eeeeeee38e",
"O0e22e2e::::::::::::::222<eee<3e",
"X8e<3e3:::3e::::::::2::322eee23e",
"+8e<<e3::eee::::::::e::eeeeee30e",
"X8e33e33333w::::::::222223e2e23e",
".0e<3e33<<3e::::::::<22223e<e#4e",
"O0e23e3eweeee::::::eeeeeeeeee22e",
"O0e#3e3w333e<::e2::e232##2eee#2e",
".2e23e<e<<3e:::e2:::22#222eee44e",
".0e2<e3eeeee::eeee::::eeeeeee44e",
"O0e22e2#33<:::3e23<:::2222e2e24e",
".0e22e22<3:::83e322:::222#e2e24e",
".0e22e2#8<:::eeeeeee:::eeeeeeeee",
"O0e2#eee:::::eeeeeee::::eee2e242",
"o8e322ee::::e38e344e2:::::24e242",
"o8eweeeeee::eeww333ee:::::eee24#",
"ow888eeeweewee8388044444404004q2",
"o8<<<<<&<<<<<<<<<2&22#2#2###2244"
};
