/* XPM */
static char *_b951abf39e748c7e595f6fa62d3e2ebz3Ch6yiIQspDf8iR[] = {
/* columns rows colors chars-per-pixel */
"32 32 66 1 ",
"  c black",
". c #423A25",
"X c #463E29",
"o c #4B432E",
"O c #4D4531",
"+ c #504732",
"@ c #524A35",
"# c #554D39",
"$ c #594F39",
"% c #57503A",
"& c #5B533D",
"* c #5E5641",
"= c #5F5842",
"- c #605741",
"; c #635B44",
": c #665E48",
"> c #676047",
", c #686047",
"< c #676149",
"1 c #69644D",
"2 c #6B644C",
"3 c #69644E",
"4 c #6A654F",
"5 c #6C644C",
"6 c #6D644C",
"7 c #6C654C",
"8 c #6D654D",
"9 c #70664F",
"0 c #70684F",
"q c #6C6551",
"w c #6F6650",
"e c #6C6553",
"r c #6D6851",
"t c #6F6951",
"y c #706852",
"u c #736952",
"i c #736B52",
"p c #746B53",
"a c #736A54",
"s c #766D54",
"d c #766D55",
"f c #766F55",
"g c #786F56",
"h c #766E58",
"j c #796F58",
"k c #7A7157",
"l c #797158",
"z c #7C735A",
"x c #7E755B",
"c c #7C735C",
"v c #7E755C",
"b c #7F765D",
"n c #80775E",
"m c #82785F",
"M c #837A5F",
"N c #837A60",
"B c #847B62",
"V c #857B62",
"C c #857C63",
"Z c #867C63",
"A c #887F64",
"S c #897F66",
"D c #898066",
"F c #8A8167",
"G c #8B8167",
"H c #8D8368",
/* pixels */
"                                ",
" ;8vmx4-:9y:w        :&@&--@&## ",
" a-+o<:<yxzgw;#&&,88<--::%&4y>@ ",
" 4-#<d8;6SVn4**;&:HHlk8:-:0kaCl ",
" ::;<:yagy7$-yp<0pSvGSm088<y<<& ",
" &-,-kdNCxy::kk<y8:--:&-7-##&&- ",
" o#X#&$;7ykydd<-##,t:--,<**&y9& ",
" -#-gyj8::lnd8:&:>kl0p9::;78&:< ",
" 8vkmkpld8;*$-:-:g9:xy8<*;<;;y: ",
" :vx09DNc8t-%<pp9n8&&#@:ydk97:y ",
" @:8;-&:8:0::8<<:8<:&**-:9d-9;C ",
" @$&:--&:-#@#:y<:##@o#*q8y8:yy& ",
" 8-=&&-::::=<48twdzldddtwww=:<= ",
"  <y-+-&:zCdy>o&8lczldlw:<=-$;  ",
"  llg8&O*;d8@OOwyd*$&tNl4wVy:=  ",
"  :&<;@o-ydvd<4y8lg<:NdtwvDlw=  ",
"  +@-&7:;<8<;##*-1wwGGM<&:tt11  ",
"  @;,Mmz9:-@&&#*w;8vnx98kDGCc:  ",
"  88<:<<:&=8y:@*:a-+o:gnSVla<;  ",
"  mk-,,-&:pdpCk6;w-#:gy;<-&-*4  ",
" dd7<y6:8kmv8<&6:4:;<:ygdpy-*yp ",
" Vg<$;$-8;@#$*8gd$;<*kknk9:;:y: ",
" &::-;:88*=*99*O.o&X#&%;<;<8dd0 ",
" -:98gng8:t<#yw#&*#-gyj7::4;;;: ",
" d8:x88:-;:&-8&:&9nznkd4&--&&-< ",
" 8<&&#@;ylg<6-d;$:VSmg:nVzd;#,p ",
" 8<;&&*:<y8*;#<8&&lnx8gSVdy-:86 ",
" ##o.@&4yyy;9w;;&@$$;*-&;-#+@:y ",
" dkjyddy8y1;4vp8<8;:;&@-w<:=<<< ",
" jjgldkt::*4xVmtk&7p:$::4cVld8X ",
" y&&&yml49d:**       <&O*;gy##O ",
"                                "
};
